<svg xmlns="http://www.w3.org/2000/svg" xmlns:xlink="http://www.w3.org/1999/xlink" version="1.1" id="Layer_1" x="0px" y="0px" viewBox="0 0 750.78 320.04" style="enable-background:new 0 0 750.78 320.04;" xml:space="preserve">
<style type="text/css">
	.st0{fill-rule:evenodd;clip-rule:evenodd;fill:#1C388C;}
	.st1{fill:#1C388C;}
</style>
<g>
	<g>
		<path class="st0" d="M690.77,94.1c-5.75,6.35-21.67,7.83-36.2,10.01c-0.68,4.48-1.36,8.95-2.02,13.43    c15.27-1.21,29.19,2.35,42.36,7.26c-15.87,6.65-32.92,15.34-50.67,11.78c-11.12-2.24-17.14-11.31-19.52-23.29    c-6.18-31.23,1.67-68.05-14.39-112.53c-1.87,4.18-3.76,8.37-5.64,12.55c11.52,41.27,9.4,82.28,13.31,111.03    c2.62,19.36,13,27.51,26.35,27.98c13.38,0.47,31.23-7,43.97-12.13c16.42-6.59,34.21-9.81,52.52-9.85    c1.86-4.53,3.75-8.32,5.63-12.85c-19.1-2.55-38.29-5.24-57.13-9.21c4.88-7.46,6.66-17.06,6.88-26.92l-4.88-48.05l8.33,8.32    L685.77,0.86l-3.99,13.25L690.77,94.1z"/>
		
			<rect x="427.19" y="81.66" transform="matrix(0.6775 -0.7355 0.7355 0.6775 74.8917 347.7845)" class="st0" width="13.66" height="13.67"/>
		
			<rect x="701.36" y="154.48" transform="matrix(0.6776 -0.7354 0.7354 0.6776 109.6977 572.8419)" class="st0" width="13.66" height="13.66"/>
		<polygon class="st0" points="443.49,88.1 452.75,78.06 462.79,87.31 453.54,97.35   "/>
		<path class="st0" d="M507.87,17.61c1.3-1.82,2.04,0.39,1.55,2.1c-4.94,17.31-20.19,2.82-4.13-17.94c1.53-1.99,3.5-0.9,1.99,1.69    c-3.8,6.54-6.7,11.88-4.71,14.91C505.37,20.79,506.66,19.31,507.87,17.61"/>
		<path class="st0" d="M537.44,77.79c1.3-1.83,2.04,0.39,1.55,2.1c-4.94,17.32-20.19,2.81-4.13-17.94c1.52-1.97,3.5-0.9,1.99,1.69    c-3.8,6.54-6.7,11.88-4.71,14.92C534.95,80.97,536.24,79.48,537.44,77.79"/>
		<path class="st0" d="M715.31,64.8c1.31-1.84,2.06,0.39,1.56,2.1c-4.94,17.32-20.19,2.82-4.13-17.95c1.52-1.97,3.5-0.9,2,1.71    c-3.8,6.52-6.71,11.86-4.71,14.9C712.83,67.99,714.12,66.49,715.31,64.8"/>
		<path class="st0" d="M746.6,173.8c1.3-1.83,2.04,0.39,1.55,2.11c-4.93,17.32-20.19,2.81-4.13-17.95c1.52-1.97,3.5-0.9,2,1.71    c-3.8,6.52-6.71,11.86-4.72,14.9C744.1,176.99,745.39,175.49,746.6,173.8"/>
		<path class="st0" d="M450.9,173.8c1.29-1.83,2.03,0.39,1.55,2.11c-4.94,17.32-20.19,2.81-4.13-17.95c1.53-1.97,3.5-0.9,1.99,1.71    c-3.8,6.52-6.72,11.86-4.71,14.9C448.41,176.99,449.7,175.49,450.9,173.8"/>
		<path class="st0" d="M639.17,0.76c11.01,11.96,14.29,25.35,9.03,40.33c0.54-14.04-4.62-24.15-11.37-33.19L639.17,0.76z"/>
		<path class="st0" d="M461.76,12.75L461.76,12.75c-0.62-2.09-1.58-4.11-3.64-5.05c-2.01-0.93-4.34,1.94-2.18,3.99    C457.45,13.13,459.8,12.63,461.76,12.75 M460.76,20.05c-8.29-0.31-11.25-3.95-8.27-11.71c3.48-9.05,9.2-10.33,12.14-2.1    c3.34,9.34-0.83,17.24-6.07,24.87c-8.98,10.13-18.9,19.6-30.53,24.83c-4.6,2.08-6.72-1.75-2.49-4.5    C438.33,43.17,452.42,34.4,460.76,20.05z"/>
		
			<rect x="179.45" y="62.31" transform="matrix(0.6776 -0.7354 0.7354 0.6776 9.216 159.2928)" class="st0" width="13.66" height="13.66"/>
		
			<rect x="86.65" y="81.89" transform="matrix(0.6776 -0.7354 0.7354 0.6776 -35.1081 97.3568)" class="st0" width="13.66" height="13.66"/>
		<polygon class="st0" points="120,175.97 129.26,165.92 139.31,175.18 130.05,185.23   "/>
		<polygon class="st0" points="206.1,172.44 215.35,162.4 225.4,171.65 216.14,181.7   "/>
		
			<rect x="105.78" y="81.1" transform="matrix(0.6776 -0.7355 0.7355 0.6776 -28.3662 111.1709)" class="st0" width="13.66" height="13.67"/>
		
			<rect x="141.95" y="167.96" transform="matrix(0.6778 -0.7352 0.7352 0.6778 -80.5808 165.6981)" class="st0" width="13.66" height="13.66"/>
		<polygon class="st0" points="225.22,171.66 234.47,161.61 244.52,170.87 235.26,180.9   "/>
		<path class="st0" d="M272.88,95.05c1.31-1.83,2.04,0.39,1.56,2.1c-4.94,17.32-20.19,2.81-4.13-17.94c1.52-1.97,3.5-0.9,2,1.69    c-3.8,6.54-6.71,11.88-4.71,14.92C270.4,98.24,271.68,96.74,272.88,95.05"/>
		<path class="st0" d="M75.05,91.42L75.05,91.42c-1.34-2.69-3.18-4.42-5.51-5.23c-0.11,1.54-0.48,3.03-1.05,4.5    C70.37,92.33,72.62,92.32,75.05,91.42 M66.12,90.38L66.12,90.38c0-2.83-0.36-5.48-1.55-7.74c-3.25-0.1-4.87,1.51-4.13,5.62    C62.03,89.33,64,89.94,66.12,90.38z M62.39,70.46c5.42,6.6,11.7,9.67,17.42,17.06c0.26,10.22-5.38,12.59-12.52,9.95    c-8.73,18.6-34.16,32.45-60.6,41.32c-4.78,1.61-5.5-1.71-0.69-3.74c12.87-5.48,52.39-23.5,56.93-38.48    c-2.06-2.65-6.67,0.39-6.02-8.38c0.36-4.66,1.5-8,4.17-10.41C61.16,74.92,61.5,72.57,62.39,70.46z"/>
		<path class="st0" d="M399.55,0.86l-3.98,13.25l15.15,135.11c4.21-6.32,4.81-14.8,3.53-27.3l-9.1-88.61l8.33,8.31L399.55,0.86z"/>
		<path class="st0" d="M186.78,128.49L186.78,128.49c-5.83-4.33-9.9-9.92-8.16-15.94c2.85-9.87,9.77-5.04,16.2,8.32    C192.92,124.04,190.01,126.38,186.78,128.49 M373.62,141.75c5.8-7.23,5.93-16.07,4.62-28.57l-8.29-79.96l8.4,8.3L364.31,0.76    l-4,13.25l13.05,114.73c-4.83,10.73-23.49,6.09-23.68-1.31c2.77-4.44-1.59-7.06-4.27,0.11c-4.07,10.89-25.26,11.57-22.37,1.37    c1.65-5.82-0.35-6.01-4.23-1c-3.94,5.06-11.51,8.83-16.27,9.92c-10.89,2.51-20.22-5.09-17.85-10.07c2.53-5.35,1.62-6.73-3.51-1.95    c-7.37,6.88-15.7,10.89-21.49,12.16c-11.07,2.44-19.75-5.21-20.08-13.93c-0.19-5.31-4.1-7.3-8.61-2.14    c-10.9,12.49-23.86,19.83-34.96,12.56c8.67-19.11,2.48-38.4-10.34-41.13c-12.9,0.5-16,28.66-8.75,42.28    c-9.48,4.68-20.97,6.93-25.81-7.51c-2.1-6.28-3.75-7.71-7.03-2.83c-4.54,6.75-7.9,12.16-12.38,14.25    c-7.72,3.59-19.59,0.76-21.64-10.77c-2.34-13.18-6.51-11.7-12.16-6.54c-13.38,12.19-17.29,32.87-29.7,44.35    c-15.77,14.6-29.13-18.96-25.09-46.26c0.65-4.39-3.12-4.1-3.84,1.9c-3.19,26.5,0.04,47.25,14.75,58.59    c11.29,8.7,20.48-1.56,29.67-22.22c4.21-9.47,10.02-18.33,17.46-24.49c8.4-5.65,9.23,14.41,16.81,18.47    c9.25,4.94,18.15,3.08,28.01-14.77c7.72,18.62,21.37,20.22,39.73,6.11c18.28,16.29,33.16,5.54,42.72-5    c3.81-4.18,6.61-6.63,7.98-0.83c2.45,10.48,13.37,17.31,25.24,13.29c6.1-2.05,13.5-7.25,18.2-12.29    c2.11,13.63,18.3,17.02,28.93,9.64c3.44-2.37,6.35-5.09,8.75-8.09c5.46,18.85,20.7,9.69,27.29-1.2    C354.56,152.37,366.08,151.15,373.62,141.75z"/>
		<path class="st0" d="M723.91,0.86l-3.98,13.25l15.14,135.11c4.21-6.32,4.81-14.8,3.54-27.3l-9.1-88.61l8.32,8.31L723.91,0.86z"/>
		<path class="st0" d="M577.41,6.43c0.04-3.56,1.36-5.5,3.94-5.65c4.01-0.25,6.95,1.59,9.59,3.94c0.35,2.77-0.14,4.97-1.48,6.64    c-4.69-0.95-8.31-0.79-11.31,0.25c0.51,8.23-1.47,15.15-5.17,21.15c4.39-1.59,8.44-0.03,12.56,5.65c0.6,2.99-0.54,4.84-2.47,6.15    c-6.78-0.65-12.29,0.2-15.99,3.21c2.22,15.41,10.25,31.98,6.65,46.23c-3.04-13.2-6.07-26.4-9.11-39.59    c0.16-4.27-0.26-8.53,3.68-12.79c-0.26-1.97,0.32-3.94,1.72-5.9c-1.95-5.17-2.67-11.6-10.83-10.58c-0.8-3.45-0.14-6.8,5.38-6.43    c3.01,0.2,5.03,4.51,7.17,9.63C577.42,21.97,571.11,12.67,577.41,6.43"/>
		<path class="st0" d="M327.14,72.25c-0.76,1.63-1.51,3.25-2.27,4.86c0.95,2.48,1.89,4.96,2.82,7.44c-2,1.48-4.43,1.58-6.03-0.16    c-1.9-2.05-2.33-5.29-3.29-8.15c-1.36,0.53-2.07,1.75-2.59,4.16c0.43,1.77,0.61,3.79,1.03,5.56c-5.58,3.75-6.89,0.07-7.44-8.69    c-0.14-2.15-2.88-3.38-3.04,0.31c-0.28,5.88-0.59,11.38,2.34,14.09c3.79,3.54,7.09,0.98,9.39-2.34c3.99,1.73,8.2,2.89,11.2-0.16    C332.58,85.76,330.67,79.36,327.14,72.25"/>
		<path class="st0" d="M478.52,64.45l62.18-28.62l-2.96,7.43l-60.46,28.62c0,0.9,0.85,1.39,0.8,2.07c-0.39,4.76-3.57,4.95-5.04,0.69    C472.29,72.51,476.12,64.93,478.52,64.45"/>
		<path class="st0" d="M637.26,75.19l42.75-19.47l-2.96,7.44l-41.03,19.46c0.01,0.9,0.85,1.38,0.79,2.06    c-0.38,4.75-3.57,4.95-5.04,0.7C631.04,83.26,634.86,75.68,637.26,75.19"/>
		<path class="st0" d="M652.83,162.15c1.15-6.85,9.46-9.28,11.54-4.74c3.35,7.32-2.44,13.58-8.15,18.38    c0.62,4.38,9.27,0.48,18.06-7.13c1.81-1.56,3.03-0.39,1.71,1.49c-4.55,6.43-10.18,10.76-16.2,12.82c-6.85,3-9.82-5.43-5.11-10.97    c4.59-5.36,8.12-8.42,6.66-10.36c-2.86-2.36-3.92-1.25-5.91,2.15C654.51,165.33,652.36,164.91,652.83,162.15"/>
		<path class="st0" d="M574.71,171.79l42.75-19.47l-2.97,7.44l-41.03,19.46c0,0.9,0.85,1.38,0.79,2.06    c-0.37,4.75-3.56,4.95-5.03,0.69C568.49,179.86,572.31,172.28,574.71,171.79"/>
		<path class="st0" d="M502.02,162.36c1.6,0.85,3.66,1.48,4.69,2.97c2.81,4.05-1.8,7.58-4.96,11.25c-0.04,2.37,5.46,3,9.27,0.06    c4.01-3.12,5.66-8.08,7.79-12.36c0.78-1.55,1.86-1.12,1.28,0.72c-2.13,6.69-5.29,12.65-9.62,16.07    c-4.46,3.52-10.83,3.66-12.03-1.37c-0.95-3.92,3.1-7.14,5.93-9.91c-1.1-2.07-5.66-1.57-6.82-4.5c-1.49-3.77,1.05-6.32,3.54-8.38    c2.58-2.13,3.74-1.31,2.66,1.43C503.22,159.68,502.59,161.01,502.02,162.36"/>
		<path class="st0" d="M242.91,49.22L348.38,0.76l-2.96,7.43L241.67,56.65c0,0.9,0.85,1.38,0.79,2.06c-0.37,4.76-3.57,4.95-5.04,0.7    C236.69,57.29,240.51,49.7,242.91,49.22"/>
		<path class="st0" d="M154.34,57.57c-0.76,1.62-1.51,3.24-2.27,4.85c0.95,2.48,1.89,4.96,2.83,7.44c-2.01,1.49-4.43,1.58-6.03-0.16    c-1.91-2.05-2.33-5.29-3.3-8.14c-1.36,0.52-2.07,1.74-2.58,4.15c0.42,1.78,0.6,3.79,1.01,5.56c-5.58,3.75-6.89,0.07-7.44-8.69    c-0.13-2.15-2.88-3.38-3.04,0.31c-0.28,5.87-0.59,11.36,2.35,14.09c3.79,3.54,7.08,0.98,9.39-2.34c3.98,1.73,8.19,2.9,11.2-0.16    C159.8,71.07,157.87,64.66,154.34,57.57"/>
		<path class="st0" d="M103.62,49.22L209.09,0.76l-2.96,7.43L102.38,56.65c0.01,0.9,0.84,1.38,0.8,2.06    c-0.37,4.76-3.57,4.95-5.04,0.7C97.4,57.29,101.22,49.7,103.62,49.22"/>
		<path class="st0" d="M226.63,83.8c3.1-4,6.25-7.38,10.39-3.68c-1.82,3.39-5.65,5.5-7.79,8.65c-1.86,2.68-0.55,3.6,2.53,1.68    c5.4-3.32,8.37-8.25,8.63-14.37c-5.21-5.13-10.18-3.44-13.98,3.53C225.51,81.23,226.11,82.69,226.63,83.8"/>
		<path class="st0" d="M334.4,163.63c2.33,5.17-3.66,12.23-7.95,8.11c-2.44,2.83-4.71,5.04-7.5,1.9    c-10.35,6.85-24.69,10.53-41.48,9.9c-3.01-0.11-4.6-2.63-0.18-3.06c13.73-1.33,26.83-2.41,37.53-9.54    c2.01-1.34,3.7-2.74,5.61-2.71c2.58,3.2,3.82,1.36,5.52-0.76c1.1-1.4,2.16-0.96,3.12,0.04    C333.04,171.64,332.25,164.82,334.4,163.63"/>
		<path class="st0" d="M344.67,49.41c1.3-1.84,2.05,0.39,1.55,2.1c-4.94,17.31-20.19,2.82-4.13-17.95c1.53-1.98,3.5-0.9,1.99,1.69    c-3.79,6.54-6.7,11.87-4.71,14.91C342.18,52.59,343.48,51.1,344.67,49.41"/>
		<path class="st0" d="M246.29,17.61c1.3-1.82,2.04,0.39,1.55,2.1c-4.93,17.31-20.19,2.82-4.13-17.94c1.53-1.99,3.5-0.9,2,1.69    c-3.8,6.54-6.72,11.88-4.71,14.91C243.8,20.79,245.09,19.31,246.29,17.61"/>
		<path class="st0" d="M51.36,13.96c1-0.59,2-1.19,2.99-1.77c5.41,3.27,10.66,6.6,11.29,11.97c-4.57,6.14-11.18,11.19-13.73,18.41    c-3.39,9.64,3.03,11.68,8.41,8c5.92-4.05,9.04-11.07,14.4-15.75c3.37-2.94,5.17,0.14,3.77,6.87c4.58-5.05,5-13.8,1.33-14.19    c-6.03-0.65-11.63,8.51-18.06,15.97c-1.73,2.02-3.95,1.19-5.75,0.44c10.59-12.67,16.44-20.77,12.74-27.4    c-2.71-4.85-9.12-10.2-19.05-15.75C46.12,3.61,45.5,7.56,51.36,13.96"/>
		<path class="st0" d="M584.47,123.69L584.47,123.69c3.25,5.1,7.92,8.23,13.93,9.38C597.21,123.04,592.55,119.91,584.47,123.69     M506.09,116.8L506.09,116.8c2.11,2.47,4.59,4.71,7.89,6.51c2.8-1.49,5.94-2.76,7.41-5.17    C516.27,116.97,511.17,116.75,506.09,116.8z M453.81,134.97c-1.69-1.9-3.57-2.65-6.2-0.89c-7.44,6.17-13.26,15.04-17.46,24.5    c-9.19,20.65-18.39,30.92-29.67,22.22c-14.7-11.34-17.94-32.1-14.76-58.59c0.74-6,4.51-6.29,3.85-1.88    c-4.05,27.28,9.31,60.85,25.1,46.24c12.4-11.48,16.32-32.15,29.68-44.35c5.65-5.16,9.84-6.64,12.44,7.38    c12,13.96,29.67,8.73,44.79,1c-4.31-5.73-11.53-8.97-23-8.6c0.58-5.32,1.58-10.06,2.14-15.38c22.68-8.14,44.88-7.26,65.74,4.26    c-1.43,3.89-2.85,7.8-4.28,11.69c-5.85,2.76-12.52,6.07-18.56,8.72c5.92,12.71,38.51,3.92,47.56-16.52    c2.04-4.6,3.77-5.71,7.2-2.65c11.21-10.81,33.48-15.49,25.52,27.34c-1.31,6.94-3.8,11.38-10.06,9.91    c-11.74-2.76-17.58-13.63-21.81-22.13c-4,10.54-21.46,25.19-36.55,25.07c-8.11-0.07-17.8-4.7-24.42-13.6    c-16.44,9.18-31.43,17.88-45.19,12.82C460.28,149.48,456.14,143.56,453.81,134.97z"/>
	</g>
	<g>
		<path class="st1" d="M533.05,249.96c-5.27,13.39-11.62,23.28-19.05,29.71c-7.43,6.41-16.2,9.63-26.35,9.63    c-7.51,0-13.58-1.85-18.26-5.53c-4.68-3.7-7.03-8.44-7.03-14.24c0-6.12,2.57-11.33,7.7-15.64c5.14-4.29,11.41-6.45,18.82-6.45    c5.56,0,10,1.33,13.33,4c3.33,2.67,5,6.19,5,10.58c0,4.68-1.83,8.54-5.48,11.61c-3.67,3.05-8.31,4.58-13.97,4.58    c-3.04,0-5.9-0.4-8.57-1.21c-2.67-0.79-4-1.53-4-2.17c0-0.03,0.02-0.1,0.06-0.18c0.05-0.08,0.1-0.11,0.13-0.11    c0.14,0,1.56,0.4,4.21,1.21c2.64,0.8,5.22,1.21,7.73,1.21c5.34,0,9.74-1.37,13.21-4.12c3.49-2.75,5.22-6.2,5.22-10.34    c0-3.59-1.41-6.43-4.26-8.54c-2.83-2.11-6.66-3.15-11.46-3.15c-6.77,0-12.64,2.04-17.57,6.13c-4.93,4.07-7.41,8.91-7.41,14.48    c0,4.97,2.03,8.94,6.09,11.93c4.07,3.01,9.44,4.5,16.09,4.5c8.63,0,15.88-2.8,21.75-8.38c5.87-5.58,11.35-15,16.43-28.23    c-0.88,0.06-1.74,0.11-2.57,0.16c-0.84,0.05-1.61,0.08-2.33,0.08c-6.62,0-12.1-1.67-16.4-5.02c-4.31-3.36-6.46-7.49-6.46-12.43    c0-4.71,1.94-8.62,5.82-11.7c3.87-3.07,8.81-4.61,14.82-4.61c4.61,0,8.81,0.9,12.59,2.68c3.79,1.8,7.17,4.5,10.16,8.12    c3.13-2.6,6.01-4.6,8.6-5.96c2.59-1.37,4.82-2.04,6.67-2.04c1.58,0,2.8,0.47,3.68,1.38c0.88,0.93,1.32,2.22,1.32,3.84    c0,4.24-2.65,8.71-7.96,13.41C548.05,243.85,541.28,247.45,533.05,249.96 M526.51,248.88c1.77-3.62,3.78-7.02,6.03-10.22    c2.27-3.2,4.79-6.22,7.57-9.05c-2.7-3.44-5.88-6.06-9.58-7.85c-3.68-1.78-7.76-2.68-12.22-2.68c-5.21,0-9.52,1.32-12.92,3.96    c-3.41,2.64-5.11,5.88-5.11,9.74c0,4.34,2.31,8.12,6.93,11.35c4.61,3.23,10.19,4.85,16.72,4.85c0.29,0,0.72-0.02,1.3-0.05    C525.8,248.9,526.24,248.88,526.51,248.88z M534.14,247.53c7.15-1.67,13.25-4.76,18.28-9.27c5.03-4.5,7.55-8.71,7.55-12.6    c0-1.21-0.34-2.14-1.03-2.83c-0.69-0.69-1.61-1.04-2.73-1.04c-1.61,0-3.6,0.84-6.01,2.51c-2.39,1.66-4.77,3.91-7.12,6.74    c0.93,1.17,1.69,2.28,2.25,3.33c0.56,1.06,0.85,1.82,0.85,2.3c-0.03,0.14-0.08,0.27-0.14,0.35c-0.06,0.08-0.14,0.11-0.22,0.11    c-0.32,0-0.84-0.61-1.54-1.82c-0.69-1.21-1.38-2.23-2.04-3.09c-1.51,1.94-2.91,4.16-4.21,6.64    C536.72,241.34,535.43,244.24,534.14,247.53z M425.43,276.95l2.03-4.24h22.47l-2.03,4.24H425.43z M410.88,263.94    c-2.48,2.51-5.03,5.29-7.65,8.34c-2.64,3.04-4.13,4.56-4.52,4.56c-0.11,0-0.22-0.03-0.32-0.11c-0.1-0.08-0.14-0.18-0.14-0.26    c0-0.51,2.52-3.52,7.59-9.05c2.07-2.23,3.73-4.02,4.95-5.34c0.58-1.35,1.19-2.36,1.85-3.04c0.64-0.68,1.35-1.01,2.11-1.01    c0.63,0,1.11,0.16,1.43,0.47c0.34,0.32,0.5,0.77,0.5,1.37c0,0.51-0.16,0.96-0.5,1.35c-0.32,0.39-0.84,0.74-1.53,1.06    c-0.16,0.06-0.39,0.14-0.66,0.24c-1.17,0.43-1.75,1.51-1.75,3.25c0,1.22,0.3,3.13,0.92,5.71c0.61,2.57,0.92,4.48,0.92,5.75    c0,1-0.1,1.96-0.29,2.88c-0.19,0.9-0.51,1.85-0.97,2.83c1.48-1.48,3.05-3.15,4.74-5.03c1.67-1.87,2.64-2.8,2.89-2.8    c0.16,0,0.29,0.05,0.4,0.14c0.11,0.1,0.16,0.21,0.16,0.32c0,0.29-0.29,0.77-0.85,1.46c-0.56,0.69-1.54,1.77-2.93,3.2    c-3.26,3.42-5.98,5.79-8.15,7.09c-2.17,1.3-4.34,1.96-6.49,1.96c-1.99,0-3.57-0.45-4.77-1.37c-1.19-0.92-1.78-2.12-1.78-3.63    c0-0.8,0.31-1.53,0.9-2.15c0.59-0.63,1.29-0.95,2.07-0.95c0.58,0,1.06,0.18,1.45,0.55c0.4,0.35,0.6,0.79,0.6,1.29    c0,0.35-0.19,0.93-0.6,1.75c-0.39,0.82-0.59,1.46-0.59,1.93c0,0.32,0.14,0.58,0.4,0.75c0.27,0.19,0.63,0.29,1.06,0.29    c2.2,0,4.37-2.01,6.53-6.01c2.15-4,3.23-8.73,3.23-14.16c0-0.39-0.02-0.84-0.05-1.35C410.99,265.71,410.94,264.94,410.88,263.94z     M385.58,280.42l-0.15,0.24c-1.69,2.68-2.54,4.5-2.54,5.45c0,0.56,0.13,1,0.37,1.29c0.26,0.31,0.64,0.45,1.14,0.45    c0.85,0,2.09-0.64,3.75-1.94c1.66-1.3,3.89-3.39,6.72-6.27c0.79-0.79,1.64-1.74,2.57-2.85c0.93-1.11,1.54-1.67,1.87-1.67    c0.16,0,0.29,0.03,0.4,0.11c0.11,0.08,0.16,0.18,0.16,0.26c0,0.32-0.23,0.77-0.67,1.37c-0.47,0.61-1.5,1.74-3.09,3.39    c-2.83,2.99-5.24,5.24-7.23,6.77c-1.99,1.53-3.5,2.28-4.55,2.28c-1.35,0-2.44-0.61-3.26-1.82c-0.84-1.21-1.25-2.8-1.25-4.74    c0-0.35,0.03-0.74,0.1-1.17c0.06-0.45,0.16-0.98,0.27-1.61c-2.57,2.99-4.95,5.29-7.12,6.91c-2.19,1.62-4,2.43-5.48,2.43    c-1.61,0-2.89-0.55-3.86-1.66c-0.98-1.09-1.46-2.57-1.46-4.42c0-2.56,2.36-7.38,7.11-14.47l0.71-1.04    c-1.74,1.7-3.55,3.63-5.43,5.8c-1.9,2.17-3.01,3.25-3.36,3.25c-0.11,0-0.22-0.02-0.32-0.06c-0.1-0.05-0.14-0.13-0.14-0.23    c0-0.37,1.03-1.74,3.07-4.07c2.04-2.35,5.11-5.66,9.19-9.93l6.93-0.37l-9.56,14.93l-0.61,1c-2.73,4.36-4.1,7.04-4.1,8.09    c0,0.47,0.14,0.87,0.45,1.22c0.29,0.34,0.66,0.51,1.11,0.51c2.57,0,5.93-2.23,10.06-6.7c4.15-4.48,8.58-10.71,13.33-18.68    l6.51-0.37L385.58,280.42z M348.93,267.67c-1.77,1.75-3.6,3.71-5.51,5.85c-1.9,2.15-3.02,3.23-3.36,3.23    c-0.13,0-0.23-0.02-0.29-0.06c-0.06-0.05-0.1-0.13-0.1-0.23c0-0.66,1.88-2.91,5.64-6.78c3.76-3.86,6.43-6.99,8.04-9.42l4.2-6.27    h-4.66l0.8-1.35h4.71l5.88-9.37l6.27-0.47l-6.19,9.84h11.09l-0.76,1.35h-11.17l-14.42,23.05c-1.53,2.44-2.67,4.39-3.41,5.87    c-0.74,1.48-1.11,2.54-1.11,3.2c0,0.47,0.16,0.88,0.5,1.27c0.32,0.37,0.71,0.56,1.16,0.56c1.16,0,2.56-0.59,4.18-1.78    c1.64-1.19,4-3.41,7.12-6.64c0.69-0.68,1.48-1.56,2.39-2.62c1.06-1.19,1.74-1.78,2.03-1.78c0.16,0,0.29,0.05,0.4,0.14    c0.11,0.1,0.16,0.21,0.16,0.32c0,0.29-0.27,0.76-0.8,1.42c-0.53,0.66-1.74,1.96-3.62,3.91c-3.23,3.3-5.67,5.53-7.35,6.67    c-1.66,1.14-3.13,1.72-4.42,1.72c-1.58,0-2.83-0.55-3.79-1.66c-0.95-1.09-1.43-2.57-1.43-4.42c0-2.46,2.23-7.04,6.69-13.76    C348.3,268.67,348.67,268.08,348.93,267.67z M311.41,276.95l2.03-4.24h22.47l-2.03,4.24H311.41z M293.87,268.19l3.95-5.77    l6.37-0.39l-10.61,16.65c-1.58,2.46-2.56,4.16-2.97,5.1c-0.4,0.95-0.61,1.77-0.61,2.46c0,0.53,0.11,0.92,0.34,1.16    c0.21,0.23,0.59,0.35,1.12,0.35c0.82,0,2.09-0.69,3.84-2.06c1.74-1.37,3.94-3.42,6.57-6.16c0.76-0.75,1.62-1.67,2.62-2.78    c1-1.09,1.59-1.64,1.82-1.64c0.19,0,0.32,0.03,0.42,0.1c0.1,0.06,0.14,0.16,0.14,0.27c0,0.35-0.35,0.96-1.08,1.85    c-0.72,0.87-1.85,2.07-3.36,3.57c-3.39,3.49-5.88,5.75-7.51,6.82c-1.62,1.04-3.13,1.58-4.55,1.58c-1.29,0-2.27-0.4-2.94-1.22    c-0.68-0.82-1.01-2.01-1.01-3.59c0-0.4,0.03-0.87,0.1-1.38c0.06-0.53,0.19-1.29,0.37-2.3c-2.2,2.8-4.32,4.92-6.38,6.35    c-2.06,1.43-3.99,2.14-5.79,2.14c-1.72,0-3.09-0.87-4.08-2.62c-0.98-1.74-1.48-4.15-1.48-7.22c0-0.76,0.05-1.51,0.16-2.27    c0.11-0.76,0.26-1.5,0.45-2.22c-0.37,0.59-0.74,1.06-1.08,1.38c-0.35,0.34-0.64,0.5-0.9,0.5c-0.22,0-0.37-0.03-0.45-0.1    c-0.08-0.06-0.11-0.16-0.11-0.27c0-0.26,0.4-0.87,1.22-1.83c0.82-0.98,1.91-2.17,3.29-3.58c3.02-3.01,6.04-5.34,9.08-6.98    c3.02-1.66,5.8-2.48,8.31-2.48c1.54,0,2.78,0.4,3.71,1.22c0.92,0.82,1.38,1.9,1.38,3.25c0,0.31-0.03,0.64-0.1,0.98    C294.08,267.42,294,267.79,293.87,268.19z M273.21,284.58c0,0.92,0.21,1.64,0.61,2.17c0.42,0.53,0.98,0.8,1.7,0.8    c1.06,0,2.39-0.53,3.99-1.61c1.59-1.06,3.25-2.56,4.97-4.47c2.62-2.86,4.63-5.64,6.06-8.36c1.43-2.72,2.15-5.06,2.15-7.04    c0-0.85-0.3-1.58-0.92-2.15c-0.61-0.58-1.37-0.87-2.25-0.87c-1.56,0-3.28,0.68-5.13,2.04c-1.87,1.37-3.7,3.29-5.53,5.77    c-1.75,2.49-3.15,4.97-4.15,7.46C273.71,280.81,273.21,282.9,273.21,284.58z M242.83,274.83c-0.53,0.69-0.96,1.19-1.29,1.48    c-0.34,0.3-0.61,0.45-0.84,0.45c-0.14,0-0.27-0.02-0.35-0.06c-0.08-0.05-0.11-0.16-0.11-0.31c0-0.22,0.34-0.76,1-1.58    c0.66-0.84,1.58-1.9,2.76-3.18c2.96-3.23,5.95-5.71,8.99-7.43c3.02-1.72,5.92-2.59,8.65-2.59c1.59,0,2.89,0.42,3.86,1.25    c0.98,0.82,1.46,1.9,1.46,3.22c0,2.67-1.75,5.24-5.27,7.72c-3.52,2.48-8.23,4.39-14.13,5.72c-0.18,1.17-0.31,2.01-0.37,2.54    c-0.06,0.53-0.1,0.98-0.1,1.32c0,1.42,0.34,2.51,1.01,3.3c0.67,0.79,1.62,1.17,2.85,1.17c1.64,0,3.39-0.55,5.24-1.62    c1.85-1.08,4.07-2.89,6.64-5.43c1.08-1.06,2.2-2.27,3.41-3.63c1.21-1.37,1.93-2.04,2.19-2.04c0.16,0,0.29,0.05,0.4,0.14    c0.11,0.1,0.16,0.21,0.16,0.32c0,0.29-0.31,0.79-0.9,1.51c-0.59,0.72-1.93,2.15-4,4.29c-2.83,2.83-5.3,4.85-7.44,6.08    c-2.14,1.22-4.2,1.83-6.17,1.83c-2.38,0-4.36-0.98-5.88-2.94c-1.54-1.96-2.31-4.45-2.31-7.48c0-0.63,0.05-1.27,0.14-1.94    C242.51,276.26,242.65,275.55,242.83,274.83z M248.08,278.03c4.29-0.95,7.99-2.8,11.08-5.56c3.07-2.77,4.61-5.35,4.61-7.76    c0-0.53-0.16-0.98-0.5-1.37c-0.32-0.37-0.72-0.56-1.21-0.56c-2.09,0-4.57,1.48-7.39,4.42    C251.85,270.15,249.64,273.75,248.08,278.03z M183.46,288.91l12.63-18.79l0.39-0.61c1.78-2.64,2.68-4.36,2.68-5.18    c0-0.43-0.1-0.76-0.3-0.96c-0.21-0.21-0.55-0.31-1.01-0.31c-1.05,0-2.38,0.66-4.04,1.98c-1.66,1.32-4.08,3.7-7.3,7.1    c-0.66,0.69-1.45,1.59-2.36,2.68c-1.09,1.35-1.82,2.03-2.17,2.03c-0.11,0-0.22-0.03-0.32-0.11c-0.1-0.08-0.14-0.18-0.14-0.26    c0-0.26,0.14-0.59,0.45-1.04c0.29-0.43,0.88-1.16,1.77-2.15l3.07-3.34c3.1-3.33,5.45-5.56,7.04-6.7c1.58-1.14,3.04-1.72,4.36-1.72    c1.16,0,2.07,0.4,2.75,1.22c0.68,0.82,1.01,1.93,1.01,3.34c0,1.45-0.3,2.99-0.92,4.66c-0.61,1.66-1.58,3.57-2.93,5.74    c4.34-5.47,7.78-9.32,10.32-11.57c2.54-2.27,4.69-3.39,6.45-3.39c1.13,0,2.06,0.39,2.78,1.16c0.72,0.77,1.08,1.74,1.08,2.89    c0,1.69-0.32,3.39-0.96,5.1c-0.66,1.72-1.69,3.59-3.1,5.63c5.13-5.8,8.87-9.71,11.25-11.73c2.36-2.03,4.29-3.04,5.77-3.04    c1.11,0,1.98,0.43,2.64,1.32c0.66,0.88,1,2.03,1,3.42c0,2.43-1.61,5.79-4.82,10.13c-0.5,0.71-0.9,1.27-1.17,1.64    c-1.72,2.38-2.89,4.15-3.51,5.29c-0.61,1.14-0.92,2.07-0.92,2.8c0,0.56,0.13,1,0.37,1.29c0.26,0.31,0.64,0.45,1.19,0.45    c0.8,0,2.12-0.71,3.91-2.12c1.78-1.4,3.95-3.44,6.49-6.11c0.75-0.74,1.61-1.69,2.59-2.81c1-1.13,1.61-1.69,1.82-1.69    c0.16,0,0.31,0.05,0.42,0.16c0.13,0.11,0.19,0.21,0.19,0.31c0,0.51-1.4,2.19-4.2,5.05l-0.56,0.56c-2.67,2.73-4.9,4.76-6.69,6.09    c-1.78,1.33-3.15,2.01-4.1,2.01c-1.38,0-2.49-0.63-3.34-1.88c-0.85-1.25-1.27-2.91-1.27-4.95c0-1.48,0.39-3.01,1.16-4.61    c0.77-1.61,2.44-4.02,5.03-7.25c0.34-0.45,0.84-1.04,1.46-1.8c1.85-2.28,2.76-3.81,2.76-4.57c-0.03-0.43-0.11-0.74-0.26-0.88    c-0.14-0.16-0.42-0.26-0.82-0.29c-1.38,0-4.23,2.25-8.5,6.74c-4.29,4.49-9.47,10.63-15.53,18.44l-6.72,0.68l12.52-18.79    c1.29-1.91,2.11-3.23,2.46-3.97c0.37-0.74,0.55-1.38,0.55-1.91c0-0.43-0.1-0.74-0.3-0.92c-0.21-0.18-0.56-0.26-1.06-0.26    c-2.51,0-9.63,7.23-21.36,21.69l-2.83,3.49L183.46,288.91z M170.05,268.19l3.95-5.77l6.37-0.39l-10.61,16.65    c-1.58,2.46-2.56,4.16-2.97,5.1c-0.4,0.95-0.61,1.77-0.61,2.46c0,0.53,0.11,0.92,0.34,1.16c0.21,0.23,0.59,0.35,1.13,0.35    c0.82,0,2.09-0.69,3.84-2.06c1.74-1.37,3.94-3.42,6.57-6.16c0.76-0.75,1.62-1.67,2.62-2.78c1-1.09,1.59-1.64,1.82-1.64    c0.19,0,0.32,0.03,0.42,0.1c0.1,0.06,0.14,0.16,0.14,0.27c0,0.35-0.35,0.96-1.08,1.85c-0.72,0.87-1.85,2.07-3.36,3.57    c-3.39,3.49-5.88,5.75-7.51,6.82c-1.62,1.04-3.13,1.58-4.55,1.58c-1.29,0-2.27-0.4-2.94-1.22c-0.68-0.82-1.01-2.01-1.01-3.59    c0-0.4,0.03-0.87,0.1-1.38c0.06-0.53,0.19-1.29,0.37-2.3c-2.2,2.8-4.32,4.92-6.38,6.35c-2.06,1.43-3.99,2.14-5.79,2.14    c-1.72,0-3.09-0.87-4.08-2.62c-0.98-1.74-1.48-4.15-1.48-7.22c0-0.76,0.05-1.51,0.16-2.27c0.11-0.76,0.26-1.5,0.45-2.22    c-0.37,0.59-0.74,1.06-1.08,1.38c-0.35,0.34-0.64,0.5-0.9,0.5c-0.22,0-0.37-0.03-0.45-0.1c-0.08-0.06-0.11-0.16-0.11-0.27    c0-0.26,0.4-0.87,1.22-1.83c0.82-0.98,1.91-2.17,3.3-3.58c3.02-3.01,6.04-5.34,9.08-6.98c3.02-1.66,5.8-2.48,8.31-2.48    c1.54,0,2.78,0.4,3.71,1.22c0.92,0.82,1.38,1.9,1.38,3.25c0,0.31-0.03,0.64-0.1,0.98C170.26,267.42,170.18,267.79,170.05,268.19z     M149.4,284.58c0,0.92,0.21,1.64,0.61,2.17c0.42,0.53,0.98,0.8,1.7,0.8c1.06,0,2.39-0.53,3.99-1.61c1.59-1.06,3.25-2.56,4.97-4.47    c2.62-2.86,4.63-5.64,6.06-8.36c1.43-2.72,2.15-5.06,2.15-7.04c0-0.85-0.3-1.58-0.92-2.15c-0.61-0.58-1.37-0.87-2.25-0.87    c-1.56,0-3.28,0.68-5.13,2.04c-1.87,1.37-3.7,3.29-5.53,5.77c-1.75,2.49-3.15,4.97-4.15,7.46    C149.9,280.81,149.4,282.9,149.4,284.58z M142.15,246.84c0-1.06,0.4-2.06,1.21-2.96c0.8-0.92,1.69-1.37,2.67-1.37    c0.76,0,1.37,0.26,1.87,0.77c0.48,0.51,0.72,1.19,0.72,1.99c0,1.08-0.4,2.06-1.21,2.99c-0.8,0.92-1.69,1.38-2.67,1.38    c-0.79,0-1.41-0.27-1.88-0.8C142.39,248.32,142.15,247.64,142.15,246.84z M122.38,292.67c-7.01,4.07-12.44,8.02-16.3,11.91    c-3.86,3.87-5.79,7.25-5.79,10.11c0,1.06,0.24,1.87,0.71,2.43c0.47,0.55,1.16,0.82,2.07,0.82c2.38,0,5.08-1.96,8.1-5.87    C114.18,308.17,117.91,301.69,122.38,292.67z M135.17,265.63c-2.01,2.14-4.18,4.55-6.54,7.22c-2.35,2.67-3.7,4-4.05,4    c-0.13,0-0.22-0.03-0.32-0.11c-0.1-0.08-0.14-0.18-0.14-0.26c0-0.26,0.14-0.61,0.45-1.04c0.29-0.43,0.88-1.16,1.77-2.15    l9.42-10.82l6.88-0.47c-2.2,4.61-4.44,9.18-6.7,13.7c-2.25,4.5-4.57,8.95-6.91,13.31c3.99-2.73,7.59-5.72,10.77-8.99    c3.2-3.26,4.79-4.9,4.79-4.9c0.19,0,0.32,0.03,0.42,0.1c0.1,0.06,0.14,0.16,0.14,0.27c0,0.88-1.74,2.97-5.19,6.3    c-3.46,3.31-7.52,6.45-12.2,9.44c-4.71,8.99-9.26,15.9-13.62,20.77c-4.37,4.87-8.18,7.3-11.45,7.3c-1.61,0-2.83-0.4-3.65-1.22    c-0.84-0.82-1.25-2.01-1.25-3.59c0-3.1,1.96-6.49,5.88-10.18c3.92-3.67,10.55-8.21,19.84-13.65L135.17,265.63z M112.02,267.67    c-1.72,1.78-3.52,3.76-5.37,5.93c-1.87,2.17-2.96,3.25-3.31,3.25c-0.11,0-0.22-0.03-0.32-0.11c-0.1-0.08-0.14-0.18-0.14-0.26    c0-0.26,0.14-0.59,0.45-1.04c0.3-0.43,0.9-1.16,1.8-2.15l3.04-3.34c1.95-2.11,3.71-4.08,5.3-5.92c1.58-1.85,2.6-3.09,3.09-3.74    l19.02-29.55l6.27-0.85l-29.72,47.16c-2.04,3.21-3.34,5.38-3.89,6.48c-0.55,1.09-0.82,1.96-0.82,2.59c0,0.5,0.16,0.93,0.5,1.29    c0.32,0.37,0.74,0.55,1.24,0.55c1.17,0,2.48-0.5,3.94-1.48c1.46-0.98,4.02-3.3,7.65-6.93c0.72-0.72,1.58-1.64,2.56-2.75    c0.96-1.11,1.59-1.67,1.88-1.67c0.16,0,0.29,0.05,0.4,0.14c0.11,0.1,0.16,0.21,0.16,0.32c0,0.29-0.27,0.76-0.8,1.42    c-0.53,0.66-1.74,1.96-3.62,3.91c-3.23,3.3-5.67,5.53-7.35,6.67c-1.66,1.14-3.13,1.72-4.42,1.72c-1.58,0-2.83-0.55-3.79-1.66    c-0.95-1.09-1.43-2.57-1.43-4.42c0-2.54,2.31-7.31,6.94-14.32L112.02,267.67z M79.95,289.29c0.37-0.92,0.87-2.14,1.48-3.67    c0.61-1.54,1.01-2.54,1.21-2.97c-3.34-0.34-6.53-1.08-9.6-2.22c-3.05-1.12-6.13-2.72-9.21-4.76c-5.34,4.61-10.84,8.04-16.49,10.27    c-5.67,2.23-11.65,3.34-17.97,3.34c-8.31,0-14.87-1.82-19.68-5.43c-4.81-3.63-7.2-8.57-7.2-14.82c0-6.09,2.56-11.32,7.68-15.66    c5.11-4.36,11.17-6.53,18.18-6.53c5.59,0,10.11,1.32,13.58,3.97c3.47,2.65,5.21,6.06,5.21,10.19c0,5.01-1.87,9.11-5.61,12.27    c-3.75,3.15-8.6,4.73-14.56,4.73c-1.58,0-2.76-0.1-3.59-0.27c-0.82-0.19-1.22-0.45-1.22-0.79c0-0.1,0.08-0.19,0.24-0.26    c0.14-0.08,0.35-0.13,0.61-0.13c0.06,0,0.23,0.02,0.47,0.05c1.11,0.1,2.14,0.15,3.12,0.15c5.53,0,10.03-1.35,13.5-4.07    c3.47-2.72,5.21-6.16,5.21-10.29c0-3.49-1.35-6.25-4.07-8.31c-2.72-2.06-6.4-3.09-11.04-3.09c-6.88,0-12.78,2.01-17.71,6.04    c-4.94,4.04-7.39,8.79-7.39,14.29c0,5.02,2.19,9.03,6.54,12.06c4.36,3.04,10.21,4.55,17.55,4.55c6.19,0,12.07-1.11,17.68-3.33    c5.59-2.23,10.83-5.51,15.69-9.87c-4.12-3.33-7.17-6.8-9.19-10.42c-2.03-3.62-3.04-7.41-3.04-11.41c0-4.45,1.4-8.09,4.21-10.87    c2.81-2.78,6.38-4.16,10.72-4.16c3.89,0,7.57,1.17,11.06,3.52c3.49,2.33,6.45,5.69,8.91,10.06c8.34-9.19,15.64-16.12,21.88-20.8    c6.22-4.68,12.89-8.55,19.98-11.59c-6.9,8.33-13.29,17.52-19.18,27.62c-5.88,10.1-11.59,21.77-17.15,34.98    c4.58-0.26,8.52-1.98,11.85-5.19c0.82-0.79,1.37-1.17,1.64-1.17c0.03,0,0.08,0.02,0.15,0.06c0.06,0.05,0.11,0.13,0.14,0.22    c0,1.35-1.45,2.88-4.36,4.58c-2.89,1.72-6.25,2.72-10.08,3.04l-2.46,5.03L79.95,289.29z M86.98,273.48    c4.08-8.7,8.91-17.14,14.5-25.3s12.17-16.36,19.72-24.63c-5.11,2.14-10.61,5.63-16.46,10.5c-5.85,4.87-12.12,11.14-18.81,18.79    c0.59,1.91,1.06,3.92,1.37,6.03c0.31,2.11,0.45,4.28,0.45,6.51c0,1.19-0.06,2.46-0.19,3.79C87.43,270.5,87.23,271.93,86.98,273.48    z M83.2,281.29c1.09-2.73,1.9-5.37,2.43-7.91c0.51-2.54,0.77-5.14,0.77-7.81c0-2.2-0.13-4.28-0.37-6.21    c-0.26-1.93-0.64-3.75-1.19-5.43c-1.25,1.32-3.1,3.31-5.55,5.98c-6.13,6.66-10.87,11.54-14.23,14.65c2.54,1.91,5.3,3.44,8.28,4.55    C76.34,280.21,79.62,280.95,83.2,281.29z M63.83,273.8c4.05-3.67,9.58-9.37,16.59-17.09c1.66-1.86,2.93-3.25,3.76-4.15    c-1.98-3.91-4.34-6.83-7.11-8.81c-2.76-1.98-5.87-2.97-9.29-2.97c-3.86,0-7.14,1.48-9.84,4.45c-2.7,2.97-4.05,6.61-4.05,10.9    c0,3.46,0.79,6.61,2.38,9.42C57.87,268.38,60.37,271.13,63.83,273.8z"/>
		<path class="st1" d="M706.9,288.91l13.91-22.18l-7.73,8.3c-0.5,0.56-0.96,1.01-1.37,1.33c-0.42,0.34-0.69,0.5-0.85,0.5    c-0.23,0-0.37-0.03-0.45-0.1c-0.08-0.06-0.11-0.16-0.11-0.27c0-0.03,2.22-2.56,6.64-7.54c4.44-5,8.52-10.67,12.25-17.04    l12.33-21.17l6.27-0.85l-27.26,46.6c5.27-5.8,9.16-9.76,11.67-11.83c2.49-2.09,4.5-3.13,6.01-3.13c1.11,0,1.98,0.43,2.64,1.32    c0.66,0.88,1,2.03,1,3.42c0,2.43-1.61,5.79-4.82,10.13c-0.5,0.71-0.9,1.27-1.17,1.64c-1.72,2.38-2.89,4.15-3.5,5.29    c-0.61,1.14-0.92,2.07-0.92,2.8c0,0.56,0.13,1,0.37,1.29c0.26,0.31,0.64,0.45,1.19,0.45c0.8,0,2.12-0.71,3.91-2.12    c1.78-1.4,3.96-3.44,6.49-6.11c0.76-0.74,1.61-1.69,2.57-2.81c1.01-1.13,1.61-1.69,1.83-1.69c0.16,0,0.27,0.05,0.37,0.14    c0.1,0.1,0.14,0.21,0.14,0.32c0,0.32-0.29,0.82-0.85,1.51c-0.56,0.69-1.83,2.06-3.81,4.1c-2.67,2.73-4.9,4.76-6.69,6.09    c-1.78,1.33-3.15,2.01-4.1,2.01c-1.38,0-2.49-0.63-3.34-1.88c-0.85-1.25-1.27-2.91-1.27-4.95c0-1.48,0.39-3.01,1.16-4.61    c0.77-1.61,2.44-4.02,5.03-7.25c0.34-0.45,0.84-1.04,1.46-1.8c1.85-2.28,2.76-3.81,2.76-4.57c-0.03-0.43-0.13-0.74-0.31-0.92    c-0.18-0.18-0.43-0.26-0.77-0.26c-1.48,0-4.47,2.27-8.99,6.8c-4.5,4.53-9.77,10.66-15.8,18.37L706.9,288.91z M698.83,268.19    l3.95-5.77l6.37-0.39l-10.61,16.65c-1.58,2.46-2.56,4.16-2.97,5.1c-0.4,0.95-0.61,1.77-0.61,2.46c0,0.53,0.11,0.92,0.34,1.16    c0.21,0.23,0.59,0.35,1.13,0.35c0.82,0,2.09-0.69,3.84-2.06c1.74-1.37,3.94-3.42,6.57-6.16c0.76-0.75,1.62-1.67,2.62-2.78    c1-1.09,1.59-1.64,1.82-1.64c0.19,0,0.32,0.03,0.42,0.1c0.1,0.06,0.14,0.16,0.14,0.27c0,0.35-0.35,0.96-1.08,1.85    c-0.72,0.87-1.85,2.07-3.36,3.57c-3.39,3.49-5.88,5.75-7.51,6.82c-1.62,1.04-3.13,1.58-4.55,1.58c-1.29,0-2.27-0.4-2.94-1.22    c-0.68-0.82-1.01-2.01-1.01-3.59c0-0.4,0.03-0.87,0.1-1.38c0.06-0.53,0.19-1.29,0.37-2.3c-2.2,2.8-4.32,4.92-6.38,6.35    c-2.06,1.43-3.99,2.14-5.79,2.14c-1.72,0-3.09-0.87-4.08-2.62c-0.98-1.74-1.48-4.15-1.48-7.22c0-0.76,0.05-1.51,0.16-2.27    c0.11-0.76,0.26-1.5,0.45-2.22c-0.37,0.59-0.74,1.06-1.08,1.38c-0.35,0.34-0.64,0.5-0.9,0.5c-0.22,0-0.37-0.03-0.45-0.1    c-0.08-0.06-0.11-0.16-0.11-0.27c0-0.26,0.4-0.87,1.22-1.83c0.82-0.98,1.91-2.17,3.3-3.58c3.02-3.01,6.04-5.34,9.08-6.98    c3.02-1.66,5.8-2.48,8.31-2.48c1.54,0,2.78,0.4,3.71,1.22c0.92,0.82,1.38,1.9,1.38,3.25c0,0.31-0.03,0.64-0.1,0.98    C699.04,267.42,698.96,267.79,698.83,268.19z M678.18,284.58c0,0.92,0.21,1.64,0.61,2.17c0.42,0.53,0.98,0.8,1.7,0.8    c1.06,0,2.39-0.53,3.99-1.61c1.59-1.06,3.25-2.56,4.97-4.47c2.62-2.86,4.63-5.64,6.06-8.36c1.43-2.72,2.15-5.06,2.15-7.04    c0-0.85-0.3-1.58-0.92-2.15c-0.61-0.58-1.37-0.87-2.25-0.87c-1.56,0-3.28,0.68-5.13,2.04c-1.87,1.37-3.7,3.29-5.53,5.77    c-1.75,2.49-3.15,4.97-4.15,7.46C678.68,280.81,678.18,282.9,678.18,284.58z M659.87,276c-3.6,4.12-6.78,7.23-9.52,9.34    c-2.73,2.12-4.95,3.18-6.69,3.18c-1.12,0-2.09-0.55-2.88-1.62c-0.79-1.08-1.17-2.44-1.17-4.07c0-2.83,1.58-6.37,4.73-10.59    c0.21-0.32,0.37-0.53,0.47-0.66c1.38-1.91,2.38-3.44,2.97-4.56c0.59-1.13,0.9-2.03,0.9-2.68c0-0.47-0.1-0.8-0.31-0.98    c-0.21-0.19-0.58-0.29-1.11-0.29c-0.98,0-2.3,0.68-3.97,2.04c-1.66,1.37-4.05,3.75-7.17,7.14c-0.63,0.66-1.4,1.53-2.31,2.59    c-1.13,1.35-1.87,2.03-2.22,2.03c-0.11,0-0.22-0.03-0.32-0.11c-0.1-0.08-0.14-0.18-0.14-0.26c0-0.26,0.14-0.59,0.45-1.04    c0.29-0.43,0.88-1.16,1.77-2.15l3.07-3.34c3.3-3.55,5.71-5.85,7.25-6.91c1.54-1.08,2.99-1.61,4.34-1.61    c1.25,0,2.27,0.47,3.02,1.42c0.75,0.93,1.12,2.19,1.12,3.71c0,1.22-0.27,2.49-0.8,3.79c-0.53,1.3-1.59,3.13-3.17,5.48l-0.61,0.95    c-3.12,4.76-4.68,7.59-4.68,8.47c0,0.53,0.16,0.98,0.47,1.37c0.32,0.37,0.66,0.56,1.04,0.56c1.95,0,5.21-2.36,9.77-7.11    c4.58-4.74,8.95-10.63,13.13-17.67l5.88-0.37c-2.91,4.74-5.66,9.37-8.23,13.9c-2.57,4.53-4.95,8.89-7.12,13.05    c3.99-2.57,7.59-5.53,10.79-8.86c3.2-3.34,4.82-5.01,4.86-5.01c0.13,0,0.23,0.05,0.32,0.14c0.1,0.1,0.14,0.19,0.14,0.32    c0,0.88-1.77,3.01-5.29,6.38c-3.54,3.38-7.59,6.45-12.18,9.24c-4.69,8.99-9.24,15.91-13.62,20.79c-4.39,4.87-8.18,7.3-11.43,7.3    c-1.59,0-2.81-0.4-3.67-1.22c-0.85-0.82-1.27-2.01-1.27-3.59c0-3.1,1.98-6.49,5.92-10.18c3.94-3.68,10.55-8.23,19.84-13.66    L659.87,276z M651.22,292.67c-7.01,4.07-12.46,8.02-16.32,11.91c-3.87,3.87-5.8,7.25-5.8,10.11c0,1.06,0.24,1.87,0.71,2.43    c0.47,0.55,1.16,0.82,2.07,0.82c2.36,0,4.95-1.8,7.76-5.42C642.46,308.91,646.32,302.3,651.22,292.67z M631.01,246.84    c0-1.04,0.42-2.01,1.25-2.94c0.84-0.92,1.74-1.38,2.72-1.38c0.79,0,1.42,0.26,1.88,0.77c0.47,0.51,0.71,1.19,0.71,1.99    c0,1.08-0.39,2.06-1.17,2.99c-0.79,0.92-1.67,1.38-2.65,1.38c-0.79,0-1.43-0.27-1.96-0.8    C631.27,248.32,631.01,247.64,631.01,246.84z M619.15,267.66c-1.77,1.77-3.6,3.71-5.51,5.87c-1.9,2.15-3.02,3.23-3.36,3.23    c-0.13,0-0.23-0.02-0.29-0.06c-0.06-0.05-0.1-0.13-0.1-0.23c0-0.4,1.08-1.83,3.22-4.28c2.14-2.46,5.16-5.69,9.05-9.73l6.93-0.47    l-9.56,15.05c-2.04,3.21-3.34,5.38-3.89,6.48c-0.55,1.09-0.82,1.96-0.82,2.59c0,0.47,0.16,0.88,0.5,1.27    c0.32,0.37,0.71,0.56,1.16,0.56c1.19,0,2.65-0.63,4.37-1.9c1.74-1.27,4.04-3.44,6.93-6.53c0.53-0.6,1.22-1.35,2.07-2.3    c1.25-1.4,2.03-2.11,2.35-2.11c0.16,0,0.29,0.05,0.4,0.14c0.11,0.1,0.16,0.21,0.16,0.32c0,0.29-0.27,0.76-0.8,1.42    c-0.53,0.66-1.74,1.96-3.62,3.91c-3.23,3.3-5.67,5.53-7.35,6.67c-1.66,1.14-3.13,1.72-4.42,1.72c-1.58,0-2.83-0.55-3.79-1.66    c-0.95-1.09-1.43-2.57-1.43-4.42c0-2.46,2.22-7.04,6.67-13.76C618.52,268.67,618.89,268.08,619.15,267.66z M607.08,261.31    c7.48-5.03,13.63-10.35,18.49-15.99c4.84-5.64,7.27-9.89,7.27-12.75c0-0.88-0.24-1.56-0.71-2.06c-0.47-0.48-1.11-0.72-1.93-0.72    c-2.73,0-5.88,2.43-9.45,7.28C617.16,241.92,612.61,250.01,607.08,261.31z M594.14,287.45h0.51c1.29,0,2.85-0.56,4.66-1.67    c1.82-1.11,3.81-2.73,5.93-4.87c0.98-1,2.12-2.22,3.44-3.67c1.25-1.41,2.01-2.12,2.27-2.12c0.13,0,0.24,0.05,0.37,0.16    c0.13,0.11,0.19,0.21,0.19,0.31c0,0.39-0.64,1.3-1.93,2.76c-1.29,1.45-2.99,3.17-5.1,5.14c-2.22,2.11-4.28,3.68-6.16,4.71    c-1.9,1.03-3.57,1.56-5.05,1.56h-0.37l-13.34,26.65l-6.83,0.75l15.3-28.36c-0.5-0.43-0.88-0.88-1.14-1.33    c-0.24-0.47-0.37-0.92-0.37-1.35c0-0.92,0.29-1.67,0.85-2.28c0.56-0.61,1.27-0.92,2.12-0.92c0.21,0,0.45,0.03,0.67,0.11    c0.24,0.08,0.53,0.19,0.88,0.35l9.84-18.41c-2.67,2.38-5.24,4.95-7.7,7.72c-2.46,2.76-3.86,4.15-4.18,4.15    c-0.11,0-0.21-0.03-0.27-0.1c-0.06-0.06-0.1-0.16-0.1-0.27c0-0.58,1.43-2.43,4.29-5.59c2.86-3.15,6.46-6.78,10.83-10.9    c5.69-10.9,10.67-18.87,14.97-23.95c4.31-5.06,8.21-7.6,11.73-7.6c1.25,0,2.31,0.45,3.17,1.37c0.87,0.92,1.3,1.99,1.3,3.25    c0,3.39-2.38,7.64-7.14,12.72c-4.74,5.1-12.22,11.33-22.38,18.74L594.14,287.45z M588.54,246.84c0-1.04,0.42-2.01,1.25-2.94    c0.84-0.92,1.74-1.38,2.72-1.38c0.79,0,1.42,0.26,1.88,0.77c0.47,0.51,0.71,1.19,0.71,1.99c0,1.08-0.39,2.06-1.17,2.99    c-0.79,0.92-1.67,1.38-2.65,1.38c-0.79,0-1.43-0.27-1.96-0.8C588.8,248.32,588.54,247.64,588.54,246.84z M576.68,267.66    c-1.77,1.77-3.6,3.71-5.51,5.87c-1.9,2.15-3.02,3.23-3.36,3.23c-0.13,0-0.23-0.02-0.29-0.06c-0.06-0.05-0.1-0.13-0.1-0.23    c0-0.4,1.08-1.83,3.21-4.28c2.14-2.46,5.16-5.69,9.05-9.73l6.93-0.47l-9.56,15.05c-2.04,3.21-3.34,5.38-3.89,6.48    c-0.55,1.09-0.82,1.96-0.82,2.59c0,0.47,0.16,0.88,0.5,1.27c0.32,0.37,0.71,0.56,1.16,0.56c1.19,0,2.65-0.63,4.37-1.9    c1.74-1.27,4.04-3.44,6.93-6.53c0.53-0.6,1.22-1.35,2.07-2.3c1.25-1.4,2.03-2.11,2.35-2.11c0.16,0,0.29,0.05,0.4,0.14    c0.11,0.1,0.16,0.21,0.16,0.32c0,0.29-0.27,0.76-0.8,1.42c-0.53,0.66-1.74,1.96-3.62,3.91c-3.23,3.3-5.67,5.53-7.35,6.67    c-1.66,1.14-3.13,1.72-4.42,1.72c-1.58,0-2.83-0.55-3.79-1.66c-0.95-1.09-1.43-2.57-1.43-4.42c0-2.46,2.22-7.04,6.67-13.76    C576.05,268.67,576.42,268.08,576.68,267.66z M555.96,268.19l3.95-5.77l6.37-0.39l-10.61,16.65c-1.58,2.46-2.56,4.16-2.97,5.1    c-0.4,0.95-0.61,1.77-0.61,2.46c0,0.53,0.11,0.92,0.34,1.16c0.21,0.23,0.59,0.35,1.13,0.35c0.82,0,2.09-0.69,3.84-2.06    c1.74-1.37,3.94-3.42,6.57-6.16c0.76-0.75,1.62-1.67,2.62-2.78c1-1.09,1.59-1.64,1.82-1.64c0.19,0,0.32,0.03,0.42,0.1    c0.1,0.06,0.14,0.16,0.14,0.27c0,0.35-0.35,0.96-1.08,1.85c-0.72,0.87-1.85,2.07-3.36,3.57c-3.39,3.49-5.88,5.75-7.51,6.82    c-1.62,1.04-3.13,1.58-4.55,1.58c-1.29,0-2.27-0.4-2.94-1.22c-0.68-0.82-1.01-2.01-1.01-3.59c0-0.4,0.03-0.87,0.1-1.38    c0.06-0.53,0.19-1.29,0.37-2.3c-2.2,2.8-4.32,4.92-6.38,6.35c-2.06,1.43-3.99,2.14-5.79,2.14c-1.72,0-3.09-0.87-4.08-2.62    c-0.98-1.74-1.48-4.15-1.48-7.22c0-0.76,0.05-1.51,0.16-2.27c0.11-0.76,0.26-1.5,0.45-2.22c-0.37,0.59-0.74,1.06-1.08,1.38    c-0.35,0.34-0.64,0.5-0.9,0.5c-0.22,0-0.37-0.03-0.45-0.1c-0.08-0.06-0.11-0.16-0.11-0.27c0-0.26,0.4-0.87,1.22-1.83    c0.82-0.98,1.91-2.17,3.29-3.58c3.02-3.01,6.04-5.34,9.08-6.98c3.02-1.66,5.8-2.48,8.31-2.48c1.54,0,2.78,0.4,3.71,1.22    c0.92,0.82,1.38,1.9,1.38,3.25c0,0.31-0.03,0.64-0.1,0.98C556.17,267.42,556.09,267.79,555.96,268.19z M535.3,284.58    c0,0.92,0.21,1.64,0.61,2.17c0.42,0.53,0.98,0.8,1.7,0.8c1.06,0,2.39-0.53,3.99-1.61c1.59-1.06,3.25-2.56,4.97-4.47    c2.62-2.86,4.63-5.64,6.06-8.36c1.43-2.72,2.15-5.06,2.15-7.04c0-0.85-0.3-1.58-0.92-2.15c-0.61-0.58-1.37-0.87-2.25-0.87    c-1.56,0-3.28,0.68-5.13,2.04c-1.87,1.37-3.7,3.29-5.53,5.77c-1.75,2.49-3.15,4.97-4.15,7.46    C535.8,280.81,535.3,282.9,535.3,284.58z"/>
	</g>
</g>
</svg>